<?xml version="1.0" encoding="UTF-8"?><svg version="1.1" xmlns="http://www.w3.org/2000/svg" xmlns:xlink="http://www.w3.org/1999/xlink" viewBox="0 0 1600 1200" width="1600" height="1200" x="0px" y="0px">
              
              <!-- ITEM 0 -->
<g>
    <defs>
        
        <clipPath id="clip-path-id-viewbox-item-0">
            <rect x="0.0" y="0.0" width="100.0" height="100.0"/>
        </clipPath>
    </defs>
    <g transform="translate(347.0 158.0) rotate(0.0 446.0 446.0) scale(8.92 8.92)">
        <g clip-path="url(#clip-path-id-viewbox-item-0)" transform="translate(-0.0 -0.0)">

<circle fill="#dee9fd" cx="50" cy="50" r="50"/>

        </g>
    </g>
</g>

<!-- ITEM 1 -->
<g>
    <defs>
        
        <clipPath id="clip-path-id-viewbox-item-1">
            <rect x="0.0" y="0.0" width="157.0" height="200.0"/>
        </clipPath>
    </defs>
    <g transform="translate(339.0 491.0) rotate(327.983952526075 -86.5 110.5) scale(-1.1019108280254777 1.105)">
        <g clip-path="url(#clip-path-id-viewbox-item-1)" transform="translate(-0.0 -0.0)">

<path fill="#DBECFF" d="M76.416,47.676L35.565,6.686c-6.647,2.703-12.726,6.397-17.968,11.374l44.167,44.317  c2.478,2.486,2.478,6.515,0,9.001s-6.493,2.486-8.97,0L9.45,27.887c-4.109,6.338-6.873,13.462-8.327,21.049l36.57,36.694  c2.478,2.486,2.478,6.515,0,9.001c-2.478,2.486-6.493,2.486-8.97,0L0,65.811c1.076,21.472,11.232,44.574,29.844,63.25  c0.435,0.436,0.875,0.863,1.315,1.291c-3.095,4.408-5.994,8.967-8.602,13.723C15.238,157.415,7.345,177.947,11.302,200l6.243-1.128  c-3.628-20.218,3.745-39.29,10.569-51.729c2.353-4.29,4.969-8.431,7.768-12.457c17.468,15.145,38.132,23.631,57.36,24.684  L65.95,131.986c-2.478-2.486-2.478-6.515,0-9.001c2.478-2.486,6.493-2.486,8.97,0l35.17,35.29c7.55-1.47,14.597-4.295,20.796-8.536  l-40.866-41.005c-2.478-2.486-2.478-6.515,0-9.001c2.478-2.486,6.493-2.486,8.97,0l41.426,41.567  c4.69-5.365,8.133-11.726,10.628-18.739L113.643,85.03c-2.478-2.486-2.478-6.515,0-9.001c2.478-2.486,6.493-2.486,8.97,0  l32.148,32.257c1.567-8.671,2.173-17.886,2.238-27.158l-20.182-20.252c-2.478-2.486-2.478-6.515,0-9.001s6.493-2.486,8.97,0  l10.748,10.785c-1.328-25.929-4.756-49.683-0.656-60.066c-13.615,3.15-36.779-0.543-61.233-2.034l13.912,13.959  c2.478,2.486,2.478,6.515,0,9.001c-2.478,2.486-6.493,2.486-8.97,0L76.147,0c-9.175,0.069-18.24,0.76-26.767,2.546l36.007,36.129  c2.478,2.486,2.478,6.515,0,9.001C82.909,50.161,78.893,50.161,76.416,47.676z"/>

        </g>
    </g>
</g>

<!-- ITEM 2 -->
<g>
    <defs>
        
        <clipPath id="clip-path-id-viewbox-item-2">
            <rect x="0.0" y="0.0" width="229.0" height="300.0"/>
        </clipPath>
    </defs>
    <g transform="translate(663.0 216.0) rotate(333.4787912305065 99.5 130.5) scale(0.868995633187773 0.87)">
        <g clip-path="url(#clip-path-id-viewbox-item-2)" transform="translate(-0.0 -0.0)">

<g>
	<g>
		<path fill="#D62929" d="M3.49,300c-0.725,0-1.457-0.226-2.084-0.69c-1.546-1.151-1.865-3.336-0.712-4.88l31.3-41.94    c1.153-1.544,3.337-1.863,4.888-0.713c1.546,1.151,1.865,3.336,0.712,4.88L6.293,298.6C5.607,299.515,4.554,300,3.49,300z"/>
	</g>
	<g>
		
			<linearGradient id="SVGID_1_-i2" gradientUnits="userSpaceOnUse" x1="-1488.2854" y1="-1509.2585" x2="-1890.8448" y2="-1509.2585" gradientTransform="matrix(-0.2477 -0.1846 -0.1846 0.2477 -549.9206 236.0301)">
			<stop offset="0" style="stop-color:#E94A47"/>
			<stop offset="1" style="stop-color:#D62929"/>
		</linearGradient>
		<path fill="url(#SVGID_1_-i2)" d="M153.536,66.712c-12.649,17.755-26.951,37.961-41.458,58.724    C61.312,198.083,8.041,277.492,14.293,282.23c7.646,5.792,68.469-68.101,123.224-137.87    c15.636-19.922,30.773-39.505,44.042-56.802c14.124-18.415,26.125-34.236,34.337-45.11c6.494-8.601,5.162-20.525-2.968-26.572l0,0    c-8.194-6.096-20.121-3.874-26.479,4.935C178.476,31.853,166.933,47.907,153.536,66.712z"/>
		<polygon fill="#1D72D8" points="203.039,32.732 205.346,48.507 189.547,50.81 187.24,35.036   "/>
		<path fill="#23286B" d="M174.657,81.159l-4.785-32.708l-3.675,0.535c-3.977,5.553-8.213,11.484-12.66,17.725    c-3.854,5.41-7.864,11.052-11.986,16.863l0.346,2.361L174.657,81.159z"/>
		<path fill="#78A9EF" d="M138.069,109.433l3.666,25.061l3.952-0.577c6.209-7.952,12.299-15.79,18.179-23.394l-0.695-4.753    L138.069,109.433z"/>
		<polygon fill="#FFFFFF" points="119.627,136.663 121.375,148.614 109.405,150.359 107.657,138.409   "/>
	</g>
	<polygon fill="#428DFC" points="210.815,0 229,13.528 219.189,26.675 201.004,13.147  "/>
	<g>
		<path fill="#23286B" d="M165.489,130.959c-1.142,0-2.193-0.754-2.519-1.905c-2.906-10.267,1.397-22.338,11.508-32.292    c4.107-4.043,8.736-7.51,13.212-10.859c4.262-3.19,8.671-6.488,12.478-10.2c11.476-11.188,18.123-26.792,18.237-42.806    c0.013-1.834-0.091-3.705-0.919-4.947c-0.446-0.668-1.737-1.168-3.237-1.749c-1.999-0.775-4.484-1.739-6.933-3.768    c-0.524-0.435-1.018-0.832-1.485-1.207c-2.948-2.372-5.276-4.244-6.907-8.872c-0.48-1.363,0.237-2.857,1.602-3.336    c1.371-0.472,2.861,0.236,3.341,1.599c1.138,3.224,2.512,4.331,5.253,6.538c0.484,0.39,0.997,0.803,1.542,1.256    c1.792,1.486,3.668,2.212,5.484,2.915c2.13,0.827,4.334,1.679,5.699,3.723c1.611,2.415,1.817,5.217,1.8,7.884    c-0.122,17.4-7.346,34.353-19.817,46.51c-4.05,3.951-8.598,7.354-12.993,10.644c-4.337,3.246-8.822,6.601-12.679,10.398    c-8.729,8.594-12.521,18.742-10.143,27.147c0.394,1.391-0.415,2.836-1.808,3.227C165.962,130.928,165.725,130.959,165.489,130.959    z"/>
	</g>
</g>
<polygon fill="#FFFFFF" points="41.042,248.157 45.54,252.648 41.042,257.14 36.544,252.648 "/>

        </g>
    </g>
</g>

<!-- ITEM 3 -->
<g>
    <defs>
        
        <clipPath id="clip-path-id-viewbox-item-3">
            <rect x="0.0" y="0.0" width="200.0" height="165.0"/>
        </clipPath>
    </defs>
    <g transform="translate(368.0 606.0) rotate(303.43130547546974 -106.0 87.5) scale(-1.06 1.0606060606060606)">
        <g clip-path="url(#clip-path-id-viewbox-item-3)" transform="translate(-0.0 -0.0)">

<path fill="#EEEEEE" d="M170.98,87.304c0,2.433-1.969,4.406-4.397,4.406s-4.397-1.973-4.397-4.406V64.279  c-4.53-4.472-9.312-8.586-14.363-11.9v35.366c0,2.433-1.968,4.406-4.397,4.406s-4.397-1.973-4.397-4.406V47.621  c-4.579-1.942-9.362-3.119-14.363-3.257v43.381c0,2.433-1.969,4.406-4.397,4.406s-4.397-1.973-4.397-4.406V45.172  c-5.11,1.084-9.945,3.213-14.363,6.213v35.92c0,2.433-1.969,4.406-4.397,4.406s-4.397-1.973-4.397-4.406V59.093  c-9.961,11.037-16.269,27.332-16.269,45.614c0,18.279,6.308,34.838,16.269,45.969V123.87c0-2.433,1.969-4.406,4.397-4.406  s4.397,1.973,4.397,4.406v34.544c4.419,2.989,9.253,5.067,14.363,6.036v-40.139c0-2.433,1.969-4.406,4.397-4.406  s4.397,1.973,4.397,4.406V165c4.919-0.323,9.715-1.744,14.363-3.953v-36.736c0-2.433,1.969-4.406,4.397-4.406  s4.397,1.973,4.397,4.406v31.576c5.003-3.475,9.802-7.687,14.363-12.193V123.87c0-2.433,1.969-4.406,4.397-4.406  s4.397,1.973,4.397,4.406v10.557c12.015-13.343,21.938-26.653,29.02-29.721c-8.212-5.144-17.762-18.329-29.02-31.066V87.304z"/>
<g>
	<path fill="#EEEEEE" d="M88.874,107.692l-8.945,0.495c-12.575,0.695-25.578,1.414-37.787,4.962   c-9.421,2.737-22.351,8.45-30.449,20.128l-3.611-2.514c8.833-12.737,22.732-18.91,32.835-21.844   c12.69-3.687,25.948-4.42,38.769-5.129l8.945-0.495L88.874,107.692z"/>
</g>
<g>
	<path fill="#D6D7D8" d="M37.573,56.078l-4.913,7.506c-6.907,10.551-14.05,21.462-18.45,33.411   c-3.395,9.221-6.483,23.038-1.913,36.5l-4.163,1.419c-4.985-14.683-1.69-29.554,1.951-39.443   c4.573-12.42,11.856-23.545,18.898-34.303l4.913-7.506L37.573,56.078z"/>
</g>
<path fill="#D6D7D8" d="M79.876,14.333c1.448,1.954,1.041,4.713-0.909,6.163c-1.95,1.451-4.704,1.043-6.151-0.911l-13.7-18.487  c-6.298-0.885-12.585-1.332-18.612-0.975l21.042,28.394c1.448,1.954,1.041,4.713-0.909,6.163c-1.95,1.451-4.704,1.043-6.151-0.911  L30.612,1.557c-4.831,1.176-9.372,3.088-13.47,5.965l25.811,34.83c1.448,1.954,1.041,4.713-0.909,6.163  c-1.95,1.451-4.704,1.043-6.151-0.911l-25.33-34.18c-3.459,3.923-6.073,8.52-7.836,13.567l21.372,28.838  c1.448,1.954,1.041,4.713-0.909,6.163c-1.95,1.451-4.704,1.043-6.151-0.911L0.253,38.43c-1.43,14.812,3.201,31.662,14.078,46.34  c10.876,14.676,25.793,24.202,40.413,27.19L38.795,90.438c-1.448-1.954-1.041-4.713,0.909-6.163c1.95-1.451,4.704-1.043,6.151,0.911  l20.554,27.735c5.326-0.239,10.444-1.459,15.123-3.733L57.649,76.96c-1.448-1.954-1.041-4.713,0.909-6.163  c1.95-1.451,4.704-1.043,6.151,0.911l24.21,32.668c3.758-3.197,6.762-7.204,9.18-11.753L76.241,63.128  c-1.448-1.954-1.041-4.713,0.909-6.163c1.95-1.451,4.704-1.043,6.151,0.911l18.787,25.351c1.95-5.778,3.296-12.026,4.278-18.369  L94.571,48.943c-1.448-1.954-1.041-4.713,0.909-6.163c1.95-1.451,4.704-1.043,6.151,0.911l6.281,8.476  c1.707-17.889,1.756-34.502,5.616-41.196c-9.654,0.776-25.166-4.106-41.784-7.609L79.876,14.333z"/>

        </g>
    </g>
</g>

<!-- ITEM 4 -->
<g>
    <defs>
        
        <clipPath id="clip-path-id-viewbox-item-4">
            <rect x="0.0" y="0.0" width="165.0" height="400.0"/>
        </clipPath>
    </defs>
    <g transform="translate(823.0 30.0) rotate(40.613418879975384 237.0 574.5) scale(2.8727272727272726 2.8725)">
        <g clip-path="url(#clip-path-id-viewbox-item-4)" transform="translate(-0.0 -0.0)">

<linearGradient id="SVGID_1_-i4" gradientUnits="userSpaceOnUse" x1="1209.6849" y1="1997.2806" x2="1518.7939" y2="2486.5767" gradientTransform="matrix(0.2162 0 0 0.2162 -210.5724 -190.0189)">
	<stop offset="0" style="stop-color:#428DFC"/>
	<stop offset="1" style="stop-color:#1D72D8"/>
</linearGradient>
<path fill="url(#SVGID_1_-i4)" d="M134.538,266.184c-1.483-12.987,13.81-22.162,13.81-35.565c0-32.074-29.481-58.076-65.849-58.076  c-36.366,0-65.849,26.002-65.849,58.076c0,13.404,15.294,22.578,13.81,35.565C27.872,288.862,0,299.854,0,322.635  c0,40.185,36.936,72.762,82.5,72.762S165,362.82,165,322.635C164.999,299.853,137.126,288.862,134.538,266.184z"/>
<rect x="57.338" y="36.304" fill="#23286B" width="49.426" height="4.618"/>
<rect x="57.338" y="22.883" fill="#23286B" width="49.426" height="4.618"/>
<rect x="57.338" y="9.462" fill="#23286B" width="49.426" height="4.618"/>
<path id="texture-2_13_-i4" fill="#FFFFFF" d="M34.294,220.649c0.164-0.113,0.188-0.252,0.073-0.415  c-0.113-0.163-0.253-0.187-0.416-0.073c-0.164,0.113-0.188,0.252-0.073,0.415l0,0C33.993,220.738,34.157,220.624,34.294,220.649  L34.294,220.649z M47.326,193.86c0.139,0.024,0.301-0.089,0.326-0.228l0,0c0.024-0.139-0.089-0.3-0.229-0.326l0,0  c-0.139-0.024-0.301,0.089-0.326,0.228C46.909,193.787,47.162,193.974,47.326,193.86L47.326,193.86L47.326,193.86z M39.864,206.946  c0.139,0.024,0.277,0.048,0.441-0.065c0.024-0.139,0.048-0.276-0.065-0.439c-0.139-0.024-0.277-0.048-0.441,0.065  C39.611,206.759,39.725,206.922,39.864,206.946z M67.029,234.519c0.253,0.187,0.554,0.098,0.743-0.155  c0.188-0.252,0.098-0.552-0.156-0.74l0,0c-0.253-0.187-0.554-0.098-0.743,0.155C66.546,234.007,66.751,234.47,67.029,234.519  L67.029,234.519z M55.325,227.904c0.253,0.187,0.554,0.098,0.743-0.155c0.188-0.252,0.098-0.552-0.156-0.74  c-0.253-0.187-0.554-0.098-0.743,0.155l0,0C54.983,227.416,55.072,227.717,55.325,227.904z M43.646,221.15  c0.253,0.187,0.554,0.098,0.743-0.155l0,0c0.188-0.252,0.098-0.552-0.156-0.74l0,0c-0.253-0.187-0.554-0.098-0.743,0.155  C43.303,220.662,43.393,220.963,43.646,221.15z M43.965,251.708c0.188-0.252,0.237-0.528,0.147-0.83  c-0.253-0.187-0.53-0.236-0.833-0.146c-0.188,0.252-0.237,0.528-0.122,0.691C43.361,251.887,43.64,251.935,43.965,251.708  L43.965,251.708z M35.68,241.132c0.188-0.252,0.237-0.528,0.147-0.83c-0.253-0.187-0.53-0.236-0.833-0.146  c-0.188,0.252-0.237,0.528-0.122,0.691C35.101,241.172,35.517,241.245,35.68,241.132L35.68,241.132z M69.64,207.612  c0.277,0.048,0.604-0.179,0.652-0.456c0.048-0.276-0.18-0.602-0.458-0.65l0,0c-0.277-0.048-0.604,0.179-0.652,0.456l0,0  C69.134,207.237,69.363,207.563,69.64,207.612z M56.224,205.827c0.277,0.048,0.604-0.179,0.652-0.456  c0.048-0.276-0.18-0.602-0.458-0.65c-0.277-0.048-0.604,0.179-0.652,0.456l0,0C55.718,205.452,55.947,205.778,56.224,205.827  L56.224,205.827z M42.947,204.066c0.277,0.048,0.604-0.179,0.652-0.456l0,0c0.048-0.276-0.18-0.602-0.458-0.65l0,0  c-0.277-0.048-0.604,0.179-0.652,0.456C42.418,203.83,42.67,204.017,42.947,204.066L42.947,204.066z M33.311,259.387  c0.164-0.114,0.375-0.504,0.122-0.691c-0.113-0.163-0.506-0.374-0.693-0.122c-0.164,0.113-0.375,0.504-0.122,0.691l0,0  C32.708,259.566,32.985,259.615,33.311,259.387z M62.152,218.412c0.277,0.048,0.58-0.041,0.628-0.317  c0.048-0.276-0.065-0.439-0.318-0.626l0,0c-0.277-0.048-0.58,0.041-0.628,0.317l0,0C61.784,218.063,61.875,218.364,62.152,218.412  L62.152,218.412z M50.458,215.789c0.277,0.048,0.58-0.041,0.628-0.317c0.048-0.276-0.065-0.439-0.318-0.626l0,0  c-0.277-0.048-0.58,0.041-0.628,0.317l0,0C50.09,215.439,50.181,215.741,50.458,215.789L50.458,215.789z M38.788,213.028  c0.277,0.048,0.58-0.041,0.628-0.317l0,0c0.048-0.276-0.065-0.439-0.318-0.626l0,0c-0.277-0.048-0.58,0.041-0.628,0.317l0,0  C38.398,212.817,38.511,212.98,38.788,213.028L38.788,213.028z M46.05,239.104c0.253,0.187,0.554,0.098,0.743-0.155  c0.188-0.252,0.098-0.552-0.156-0.74c-0.253-0.187-0.554-0.098-0.743,0.155C45.708,238.616,45.773,239.055,46.05,239.104  L46.05,239.104z M36.248,232.252c0.253,0.187,0.554,0.098,0.718-0.017l0,0c0.188-0.252,0.098-0.552-0.156-0.74  c-0.253-0.187-0.554-0.098-0.743,0.155C35.906,231.764,35.995,232.065,36.248,232.252L36.248,232.252z M57.045,194.71  c0.301-0.089,0.465-0.204,0.375-0.504l0,0c-0.089-0.3-0.342-0.488-0.506-0.374l0,0c-0.301,0.089-0.49,0.341-0.399,0.643  C56.514,194.475,56.767,194.662,57.045,194.71L57.045,194.71L57.045,194.71z M45.262,196.633c0.301-0.089,0.49-0.341,0.399-0.643  c-0.089-0.3-0.342-0.488-0.645-0.398c-0.301,0.089-0.49,0.341-0.375,0.504C44.708,196.536,44.96,196.723,45.262,196.633  C45.124,196.609,45.262,196.633,45.262,196.633L45.262,196.633z M44.582,265.214c0.253,0.187,0.554,0.098,0.743-0.155  c0.188-0.252,0.098-0.552-0.156-0.74c-0.253-0.187-0.554-0.098-0.743,0.155C44.239,264.727,44.328,265.027,44.582,265.214  L44.582,265.214z M33.236,257.378c0.253,0.187,0.554,0.098,0.743-0.155c0.188-0.252,0.098-0.552-0.156-0.74  c-0.253-0.187-0.554-0.098-0.743,0.155C32.918,256.752,32.984,257.191,33.236,257.378L33.236,257.378z M57.612,208.493  c0.301-0.089,0.49-0.341,0.399-0.643c-0.089-0.3-0.342-0.488-0.645-0.398c-0.301,0.089-0.49,0.341-0.399,0.643  C56.918,208.372,57.311,208.583,57.612,208.493L57.612,208.493z M43.88,210.929c0.301-0.089,0.49-0.341,0.399-0.643  c-0.089-0.3-0.342-0.488-0.645-0.398c-0.301,0.089-0.49,0.341-0.399,0.643C43.349,210.693,43.578,211.019,43.88,210.929  L43.88,210.929z M50.163,237.687c0.277,0.048,0.604-0.179,0.652-0.456c0.048-0.276-0.18-0.602-0.458-0.65  c-0.277-0.048-0.604,0.179-0.652,0.456l0,0C49.657,237.313,49.885,237.639,50.163,237.687L50.163,237.687L50.163,237.687z   M36.665,234.748c0.277,0.048,0.604-0.179,0.652-0.456l0,0c0.048-0.276-0.18-0.602-0.458-0.65l0,0  c-0.277-0.048-0.604,0.179-0.652,0.456S36.249,234.675,36.665,234.748L36.665,234.748z M50.492,247.153  c0.277,0.048,0.604-0.179,0.652-0.456c0.048-0.276-0.18-0.602-0.458-0.65s-0.58,0.041-0.652,0.456  C49.986,246.778,50.215,247.103,50.492,247.153L50.492,247.153z M37.093,243.66c0.277,0.048,0.604-0.179,0.652-0.456  c0.048-0.276-0.041-0.578-0.458-0.65c-0.277-0.048-0.604,0.179-0.792,0.431C36.586,243.285,36.815,243.611,37.093,243.66  L37.093,243.66z M45.335,218.881c0.301-0.089,0.49-0.341,0.538-0.618c-0.089-0.3-0.342-0.488-0.62-0.536  c-0.301,0.089-0.49,0.341-0.538,0.618l0,0C44.665,218.621,45.057,218.832,45.335,218.881L45.335,218.881L45.335,218.881z"/>
<polygon fill="#A1C3FC" points="29.737,141.383 21.444,148.16 14.643,139.896 22.936,133.119 "/>
<g>
	<path fill="#E94A47" d="M10.376,167.354c-0.156,0-0.31-0.065-0.419-0.193c-0.199-0.231-0.172-0.578,0.061-0.776   c5.094-4.345,12.007-9.57,20.336-11.429c8.509-1.902,17.112,0.495,21.916,6.1c0.198,0.231,0.17,0.578-0.062,0.776   c-0.231,0.196-0.58,0.171-0.779-0.062c-4.54-5.299-12.719-7.553-20.835-5.741c-8.091,1.806-14.863,6.929-19.859,11.191   C10.631,167.311,10.503,167.354,10.376,167.354z"/>
</g>
<polygon fill="#78A9EF" points="98.158,328.371 40.386,308.027 60.802,250.457 118.574,270.801 "/>
<linearGradient id="SVGID_2_-i4" gradientUnits="userSpaceOnUse" x1="1271.5392" y1="2246.748" x2="1439.5746" y2="2246.748" gradientTransform="matrix(0.2162 0 0 0.2162 -210.5724 -190.0189)">
	<stop offset="0" style="stop-color:#23286B"/>
	<stop offset="1" style="stop-color:#151A4F"/>
</linearGradient>
<ellipse fill="url(#SVGID_2_-i4)" cx="82.499" cy="295.728" rx="18.165" ry="18.101"/>
<rect x="71.398" y="46.736" fill="#E94A47" width="22.204" height="233.32"/>
<rect x="58.279" y="351.541" fill="#D62929" width="48.441" height="6.034"/>
<rect x="66.353" y="390.572" fill="#D6D7D8" width="32.293" height="9.428"/>
<rect x="66.353" y="0" fill="#D6D7D8" width="32.293" height="46.55"/>
<rect x="71.398" y="230.292" fill="#D62929" width="22.204" height="49.765"/>
<rect x="71.398" y="129.019" fill="#D62929" width="22.204" height="49.765"/>
<rect x="71.398" y="59.395" fill="#D62929" width="22.204" height="30.775"/>
<g>
	<path fill="#FFFFFF" d="M87.604,382.001c-4.034,0-8.072-0.432-12.037-1.331l0.245-1.073c23.107,5.231,48.763-5.649,61.001-25.872   c12.237-20.223,9.922-47.91-5.504-65.836l0.839-0.715c15.726,18.275,18.087,46.504,5.611,67.12   C127.38,371.441,107.542,382,87.604,382.001z"/>
</g>

        </g>
    </g>
</g>

<!-- ITEM 5 -->
<g>
    <defs>
        
        <clipPath id="clip-path-id-viewbox-item-5">
            <rect x="0.0" y="0.0" width="285.0" height="335.0"/>
        </clipPath>
    </defs>
    <g transform="translate(287.0 208.0) rotate(347.4955743041219 182.5 214.0) scale(1.280701754385965 1.2776119402985076)">
        <g clip-path="url(#clip-path-id-viewbox-item-5)" transform="translate(-0.0 -0.0)">

<g>
	<rect x="49.69" y="0" fill="#23286B" width="37.114" height="30.474"/>
	<rect x="15.724" y="10.82" fill="#A1C3FC" width="263.803" height="324.18"/>
	<rect x="22.385" y="46.223" fill="#FFFFFF" width="13.766" height="13.784"/>
	<g>
		<path fill="#D62929" d="M27.099,57.789H2.227C0.998,57.789,0,56.79,0,55.559c0-1.231,0.998-2.23,2.227-2.23h24.871    c1.229,0,2.227,0.999,2.227,2.23C29.325,56.791,28.328,57.789,27.099,57.789z"/>
	</g>
	<rect x="22.385" y="70.238" fill="#FFFFFF" width="13.766" height="13.784"/>
	<g>
		<path fill="#D62929" d="M27.099,81.803H2.227C0.998,81.803,0,80.804,0,79.573c0-1.231,0.998-2.23,2.227-2.23h24.871    c1.229,0,2.227,0.999,2.227,2.23C29.325,80.804,28.328,81.803,27.099,81.803z"/>
	</g>
	<rect x="22.385" y="160.959" fill="#FFFFFF" width="13.766" height="13.784"/>
	<g>
		<path fill="#D62929" d="M27.099,172.525H2.227c-1.229,0-2.227-0.999-2.227-2.23c0-1.231,0.998-2.23,2.227-2.23h24.871    c1.229,0,2.227,0.999,2.227,2.23C29.325,171.526,28.328,172.525,27.099,172.525z"/>
	</g>
	<rect x="22.385" y="184.974" fill="#FFFFFF" width="13.766" height="13.784"/>
	<g>
		<path fill="#D62929" d="M27.099,196.539H2.227c-1.229,0-2.227-0.999-2.227-2.23c0-1.231,0.998-2.23,2.227-2.23h24.871    c1.229,0,2.227,0.999,2.227,2.23C29.325,195.54,28.328,196.539,27.099,196.539z"/>
	</g>
	<rect x="22.385" y="275.695" fill="#FFFFFF" width="13.766" height="13.784"/>
	<g>
		<path fill="#D62929" d="M27.099,287.261H2.227c-1.229,0-2.227-0.999-2.227-2.23s0.998-2.23,2.227-2.23h24.871    c1.229,0,2.227,0.999,2.227,2.23C29.325,286.262,28.328,287.261,27.099,287.261z"/>
	</g>
	<rect x="22.385" y="299.71" fill="#FFFFFF" width="13.766" height="13.784"/>
	<g>
		<path fill="#D62929" d="M27.099,311.275H2.227c-1.229,0-2.227-0.999-2.227-2.23s0.998-2.23,2.227-2.23h24.871    c1.229,0,2.227,0.999,2.227,2.23C29.325,310.276,28.328,311.275,27.099,311.275z"/>
	</g>
	<rect x="220.914" y="10.82" fill="#FFFFFF" width="28.411" height="324.18"/>
	<rect x="150.741" y="10.82" fill="#FFFFFF" width="28.411" height="324.18"/>
	<rect x="80.567" y="10.82" fill="#FFFFFF" width="28.411" height="324.18"/>
	<rect x="226.358" y="133.044" fill="#A1C3FC" width="58.642" height="44.596"/>
	<rect x="236.009" y="139.733" fill="#E94A47" width="30.434" height="30.474"/>
</g>

        </g>
    </g>
</g>

<!-- ITEM 6 -->
<g>
    <defs>
        
        <clipPath id="clip-path-id-viewbox-item-6">
            <rect x="0.0" y="0.0" width="157.0" height="200.0"/>
        </clipPath>
    </defs>
    <g transform="translate(1265.0 776.0) rotate(30.55181454149565 87.5 111.0) scale(1.1146496815286624 1.11)">
        <g clip-path="url(#clip-path-id-viewbox-item-6)" transform="translate(-0.0 -0.0)">

<path fill="#DBECFF" d="M76.416,47.676L35.565,6.686c-6.647,2.703-12.726,6.397-17.968,11.374l44.167,44.317  c2.478,2.486,2.478,6.515,0,9.001s-6.493,2.486-8.97,0L9.45,27.887c-4.109,6.338-6.873,13.462-8.327,21.049l36.57,36.694  c2.478,2.486,2.478,6.515,0,9.001c-2.478,2.486-6.493,2.486-8.97,0L0,65.811c1.076,21.472,11.232,44.574,29.844,63.25  c0.435,0.436,0.875,0.863,1.315,1.291c-3.095,4.408-5.994,8.967-8.602,13.723C15.238,157.415,7.345,177.947,11.302,200l6.243-1.128  c-3.628-20.218,3.745-39.29,10.569-51.729c2.353-4.29,4.969-8.431,7.768-12.457c17.468,15.145,38.132,23.631,57.36,24.684  L65.95,131.986c-2.478-2.486-2.478-6.515,0-9.001c2.478-2.486,6.493-2.486,8.97,0l35.17,35.29c7.55-1.47,14.597-4.295,20.796-8.536  l-40.866-41.005c-2.478-2.486-2.478-6.515,0-9.001c2.478-2.486,6.493-2.486,8.97,0l41.426,41.567  c4.69-5.365,8.133-11.726,10.628-18.739L113.643,85.03c-2.478-2.486-2.478-6.515,0-9.001c2.478-2.486,6.493-2.486,8.97,0  l32.148,32.257c1.567-8.671,2.173-17.886,2.238-27.158l-20.182-20.252c-2.478-2.486-2.478-6.515,0-9.001s6.493-2.486,8.97,0  l10.748,10.785c-1.328-25.929-4.756-49.683-0.656-60.066c-13.615,3.15-36.779-0.543-61.233-2.034l13.912,13.959  c2.478,2.486,2.478,6.515,0,9.001c-2.478,2.486-6.493,2.486-8.97,0L76.147,0c-9.175,0.069-18.24,0.76-26.767,2.546l36.007,36.129  c2.478,2.486,2.478,6.515,0,9.001C82.909,50.161,78.893,50.161,76.416,47.676z"/>

        </g>
    </g>
</g>

<!-- ITEM 7 -->
<g>
    <defs>
        
        <clipPath id="clip-path-id-viewbox-item-7">
            <rect x="0.0" y="0.0" width="200.0" height="165.0"/>
        </clipPath>
    </defs>
    <g transform="translate(1434.0 1060.0) rotate(216.73787219835793 -99.5 -82.5) scale(-0.995 -1.0)">
        <g clip-path="url(#clip-path-id-viewbox-item-7)" transform="translate(-0.0 -0.0)">

<path fill="#EEEEEE" d="M170.98,87.304c0,2.433-1.969,4.406-4.397,4.406s-4.397-1.973-4.397-4.406V64.279  c-4.53-4.472-9.312-8.586-14.363-11.9v35.366c0,2.433-1.968,4.406-4.397,4.406s-4.397-1.973-4.397-4.406V47.621  c-4.579-1.942-9.362-3.119-14.363-3.257v43.381c0,2.433-1.969,4.406-4.397,4.406s-4.397-1.973-4.397-4.406V45.172  c-5.11,1.084-9.945,3.213-14.363,6.213v35.92c0,2.433-1.969,4.406-4.397,4.406s-4.397-1.973-4.397-4.406V59.093  c-9.961,11.037-16.269,27.332-16.269,45.614c0,18.279,6.308,34.838,16.269,45.969V123.87c0-2.433,1.969-4.406,4.397-4.406  s4.397,1.973,4.397,4.406v34.544c4.419,2.989,9.253,5.067,14.363,6.036v-40.139c0-2.433,1.969-4.406,4.397-4.406  s4.397,1.973,4.397,4.406V165c4.919-0.323,9.715-1.744,14.363-3.953v-36.736c0-2.433,1.969-4.406,4.397-4.406  s4.397,1.973,4.397,4.406v31.576c5.003-3.475,9.802-7.687,14.363-12.193V123.87c0-2.433,1.969-4.406,4.397-4.406  s4.397,1.973,4.397,4.406v10.557c12.015-13.343,21.938-26.653,29.02-29.721c-8.212-5.144-17.762-18.329-29.02-31.066V87.304z"/>
<g>
	<path fill="#EEEEEE" d="M88.874,107.692l-8.945,0.495c-12.575,0.695-25.578,1.414-37.787,4.962   c-9.421,2.737-22.351,8.45-30.449,20.128l-3.611-2.514c8.833-12.737,22.732-18.91,32.835-21.844   c12.69-3.687,25.948-4.42,38.769-5.129l8.945-0.495L88.874,107.692z"/>
</g>
<g>
	<path fill="#D6D7D8" d="M37.573,56.078l-4.913,7.506c-6.907,10.551-14.05,21.462-18.45,33.411   c-3.395,9.221-6.483,23.038-1.913,36.5l-4.163,1.419c-4.985-14.683-1.69-29.554,1.951-39.443   c4.573-12.42,11.856-23.545,18.898-34.303l4.913-7.506L37.573,56.078z"/>
</g>
<path fill="#D6D7D8" d="M79.876,14.333c1.448,1.954,1.041,4.713-0.909,6.163c-1.95,1.451-4.704,1.043-6.151-0.911l-13.7-18.487  c-6.298-0.885-12.585-1.332-18.612-0.975l21.042,28.394c1.448,1.954,1.041,4.713-0.909,6.163c-1.95,1.451-4.704,1.043-6.151-0.911  L30.612,1.557c-4.831,1.176-9.372,3.088-13.47,5.965l25.811,34.83c1.448,1.954,1.041,4.713-0.909,6.163  c-1.95,1.451-4.704,1.043-6.151-0.911l-25.33-34.18c-3.459,3.923-6.073,8.52-7.836,13.567l21.372,28.838  c1.448,1.954,1.041,4.713-0.909,6.163c-1.95,1.451-4.704,1.043-6.151-0.911L0.253,38.43c-1.43,14.812,3.201,31.662,14.078,46.34  c10.876,14.676,25.793,24.202,40.413,27.19L38.795,90.438c-1.448-1.954-1.041-4.713,0.909-6.163c1.95-1.451,4.704-1.043,6.151,0.911  l20.554,27.735c5.326-0.239,10.444-1.459,15.123-3.733L57.649,76.96c-1.448-1.954-1.041-4.713,0.909-6.163  c1.95-1.451,4.704-1.043,6.151,0.911l24.21,32.668c3.758-3.197,6.762-7.204,9.18-11.753L76.241,63.128  c-1.448-1.954-1.041-4.713,0.909-6.163c1.95-1.451,4.704-1.043,6.151,0.911l18.787,25.351c1.95-5.778,3.296-12.026,4.278-18.369  L94.571,48.943c-1.448-1.954-1.041-4.713,0.909-6.163c1.95-1.451,4.704-1.043,6.151,0.911l6.281,8.476  c1.707-17.889,1.756-34.502,5.616-41.196c-9.654,0.776-25.166-4.106-41.784-7.609L79.876,14.333z"/>

        </g>
    </g>
</g>

<!-- ITEM 8 -->
<g>
    <defs>
        
        <clipPath id="clip-path-id-viewbox-item-8">
            <rect x="0.0" y="0.0" width="300.0" height="300.0"/>
        </clipPath>
    </defs>
    <g transform="translate(872.0 159.0) rotate(15.570605494299826 90.0 90.0) scale(0.6 0.6)">
        <g clip-path="url(#clip-path-id-viewbox-item-8)" transform="translate(-0.0 -0.0)">

<circle style="fill:#D9E021;" cx="192.103" cy="276.35" r="17.156"/>
<rect x="2.217" y="35.642" transform="matrix(-0.2968 0.9549 -0.9549 -0.2968 56.7448 47.1144)" style="fill:#A1C3FC;" width="17.616" height="17.616"/>
<rect x="100.47" y="63.366" transform="matrix(-0.2968 0.9549 -0.9549 -0.2968 244.8036 -5.5692)" style="fill:#E94A47;" width="47.965" height="47.965"/>
<rect x="32.781" y="237.765" transform="matrix(-0.2968 0.9549 -0.9549 -0.2968 323.5641 285.2325)" style="fill:#1D72D8;" width="47.965" height="47.965"/>
<g>
	<path style="fill:#23286B;" d="M68.404,147.546c-0.721,0-1.407-0.408-1.731-1.106C44.218,98.065,58.068,35.695,98.883,1.364   c0.804-0.679,2.005-0.572,2.688,0.233c0.679,0.804,0.572,2.009-0.233,2.688C61.797,37.544,48.381,97.97,70.135,144.839   c0.442,0.953,0.027,2.089-0.926,2.531C68.945,147.488,68.671,147.546,68.404,147.546z"/>
</g>
<g>
	<path style="fill:#23286B;" d="M194.749,217.594c-0.499,0-0.999-0.194-1.372-0.583c-0.728-0.755-0.709-1.963,0.053-2.695   c27.628-26.637,76.114-28.669,105.865-4.415c0.82,0.667,0.942,1.864,0.274,2.68c-0.667,0.823-1.868,0.934-2.68,0.274   c-28.341-23.091-74.505-21.162-100.814,4.209C195.702,217.415,195.226,217.594,194.749,217.594z"/>
</g>

        </g>
    </g>
</g>

<!-- ITEM 9 -->
<g>
    <defs>
        
        <clipPath id="clip-path-id-viewbox-item-9">
            <rect x="0.0" y="0.0" width="100.0" height="100.0"/>
        </clipPath>
    </defs>
    <g transform="translate(1192.0 841.0) rotate(337.36790262217136 23.0 23.0) scale(0.46 0.46)">
        <g clip-path="url(#clip-path-id-viewbox-item-9)" transform="translate(-0.0 -0.0)">

<path fill="#E94A47" d="M98.663,98.531c-33.052,1.963-65.546,1.955-97.487,0c-1.46-34.57-1.676-67.372,0-97.487  c32.497-1.392,64.992-1.392,97.487,0C100.512,32.524,100.381,65.091,98.663,98.531z"/>

        </g>
    </g>
</g>

<!-- ITEM 10 -->
<g>
    <defs>
        
        <clipPath id="clip-path-id-viewbox-item-10">
            <rect x="0.0" y="0.0" width="100.0" height="100.0"/>
        </clipPath>
    </defs>
    <g transform="translate(1248.0 802.0) rotate(0.0 11.5 11.5) scale(0.23 0.23)">
        <g clip-path="url(#clip-path-id-viewbox-item-10)" transform="translate(-0.0 -0.0)">

<path fill="#23286B" d="M98.663,98.531c-33.052,1.963-65.546,1.955-97.487,0c-1.46-34.57-1.676-67.372,0-97.487  c32.497-1.392,64.992-1.392,97.487,0C100.512,32.524,100.381,65.091,98.663,98.531z"/>

        </g>
    </g>
</g>

<!-- ITEM 11 -->
<g>
    <defs>
        
        <clipPath id="clip-path-id-viewbox-item-11">
            <rect x="0.0" y="0.0" width="100.0" height="100.0"/>
        </clipPath>
    </defs>
    <g transform="translate(193.0 409.0) rotate(324.43953105740684 14.0 14.0) scale(0.28 0.28)">
        <g clip-path="url(#clip-path-id-viewbox-item-11)" transform="translate(-0.0 -0.0)">

<path fill="#23286B" d="M98.663,98.531c-33.052,1.963-65.546,1.955-97.487,0c-1.46-34.57-1.676-67.372,0-97.487  c32.497-1.392,64.992-1.392,97.487,0C100.512,32.524,100.381,65.091,98.663,98.531z"/>

        </g>
    </g>
</g>

<!-- ITEM 12 -->
<g>
    <defs>
        
        <clipPath id="clip-path-id-viewbox-item-12">
            <rect x="0.0" y="0.0" width="100.0" height="100.0"/>
        </clipPath>
    </defs>
    <g transform="translate(165.0 455.0) rotate(332.87863386558456 9.0 9.0) scale(0.18 0.18)">
        <g clip-path="url(#clip-path-id-viewbox-item-12)" transform="translate(-0.0 -0.0)">

<path fill="#A1C3FC" d="M98.663,98.531c-33.052,1.963-65.546,1.955-97.487,0c-1.46-34.57-1.676-67.372,0-97.487  c32.497-1.392,64.992-1.392,97.487,0C100.512,32.524,100.381,65.091,98.663,98.531z"/>

        </g>
    </g>
</g>

<!-- ITEM 13 -->
<g>
    <defs>
        
        <clipPath id="clip-path-id-viewbox-item-13">
            <rect x="0.0" y="0.0" width="100.0" height="100.0"/>
        </clipPath>
    </defs>
    <g transform="translate(1178.0 762.0) rotate(339.49078722182855 14.0 14.0) scale(0.28 0.28)">
        <g clip-path="url(#clip-path-id-viewbox-item-13)" transform="translate(-0.0 -0.0)">

<path fill="#A1C3FC" d="M98.663,98.531c-33.052,1.963-65.546,1.955-97.487,0c-1.46-34.57-1.676-67.372,0-97.487  c32.497-1.392,64.992-1.392,97.487,0C100.512,32.524,100.381,65.091,98.663,98.531z"/>

        </g>
    </g>
</g>

              </svg>